<svg fill="none" xmlns="http://www.w3.org/2000/svg" viewBox="0 0 40.02 40.02"><path fill-rule="evenodd" clip-rule="evenodd" d="M20.01 0c11.052 0 20.01 8.957 20.01 20.01 0 11.052-8.958 20.01-20.01 20.01C8.956 40.02 0 31.061 0 20.01 0 8.956 8.957 0 20.01 0z" fill="#213147"/><g clip-path="url(#a)"><path d="M7.077 13.727v12.546a2.24 2.24 0 0 0 1.121 1.94l10.865 6.274c.693.4 1.546.4 2.24 0l10.864-6.274a2.24 2.24 0 0 0 1.122-1.94V13.727a2.24 2.24 0 0 0-1.122-1.94L21.303 5.513a2.24 2.24 0 0 0-2.24 0L8.195 11.787a2.238 2.238 0 0 0-1.118 1.94z" fill="#213147"/><path d="m22.553 22.433-1.55 4.25a.543.543 0 0 0 0 .364l2.666 7.312 3.083-1.78-3.7-10.146a.265.265 0 0 0-.5 0zm3.107-7.146a.265.265 0 0 0-.5 0l-1.549 4.25a.543.543 0 0 0 0 .364l4.367 11.97 3.084-1.78-5.402-14.804z" fill="#12AAFF"/><path d="M20.181 5.983c.076 0 .153.02.221.058l11.757 6.788a.442.442 0 0 1 .221.381v13.575a.44.44 0 0 1-.22.38l-11.758 6.79a.433.433 0 0 1-.22.057.468.468 0 0 1-.221-.058L8.203 27.171a.442.442 0 0 1-.22-.381V13.213a.44.44 0 0 1 .22-.381l11.758-6.789a.443.443 0 0 1 .22-.06zm0-1.983c-.417 0-.837.108-1.213.326L7.213 11.112A2.425 2.425 0 0 0 6 13.212v13.575c0 .867.462 1.668 1.213 2.101l11.758 6.789a2.417 2.417 0 0 0 2.427 0l11.757-6.789a2.425 2.425 0 0 0 1.213-2.1V13.212c0-.867-.462-1.668-1.213-2.101l-11.76-6.786A2.417 2.417 0 0 0 20.18 4z" fill="#9DCCED"/><path d="m12.405 31.887 1.082-2.962 2.177 1.81-2.035 1.859-1.224-.707z" fill="#213147"/><path d="M19.191 12.241h-2.98a.53.53 0 0 0-.5.35L9.323 30.106l3.083 1.78 7.036-19.289a.264.264 0 0 0-.25-.357zm5.216 0h-2.98a.53.53 0 0 0-.5.35l-7.295 20 3.083 1.78 7.941-21.773a.266.266 0 0 0-.25-.357z" fill="#fff"/></g><defs><clipPath id="a"><path fill="#fff" transform="translate(6 4)" d="M0 0h28.363v32H0z"/></clipPath></defs></svg>