<svg fill="none" viewBox="0 0 258 258" xmlns="http://www.w3.org/2000/svg"><g clip-path="url(#a)"><path fill-rule="evenodd" clip-rule="evenodd" d="M129 0c71.25 0 129 57.75 129 129s-57.75 129-129 129S0 200.25 0 129 57.75 0 129 0z" fill="#F0B90B"/><path d="m70.898 129 .093 34.111 28.984 17.055v19.97l-45.946-26.947v-54.164L70.9 129zm0-34.11v19.877l-16.88-9.985V84.905l16.88-9.986 16.963 9.986-16.963 9.985zm41.181-9.986 16.88-9.985 16.962 9.986-16.962 9.985-16.88-9.986z" fill="#fff"/><path d="M83.096 156.041V136.07l16.879 9.985v19.878l-16.88-9.892zm28.983 31.278 16.88 9.985 16.962-9.985v19.877l-16.962 9.985-16.88-9.985v-19.877zm58.05-102.414 16.88-9.986 16.962 9.986v19.877l-16.962 9.985V94.89l-16.88-9.986zm16.88 78.206.093-34.111 16.879-9.985v54.164l-45.946 26.947v-19.97l28.974-17.045z" fill="#fff"/><path d="m174.905 156.04-16.88 9.893v-19.878l16.88-9.985v19.97z" fill="#fff"/><path d="m174.905 101.959.093 19.971-29.067 17.055v34.193l-16.879 9.892-16.88-9.892v-34.193L83.106 121.93v-19.971l16.952-9.985 28.89 17.138 29.067-17.138 16.962 9.985h-.072zm-91.81-34.1 45.864-27.04 45.946 27.04-16.88 9.985-29.066-17.138-28.984 17.138-16.88-9.985z" fill="#fff"/></g><defs><clipPath id="a"><path fill="#fff" d="M0 0h258v258H0z"/></clipPath></defs></svg>