<svg fill="none" viewBox="0 0 258 258" xmlns="http://www.w3.org/2000/svg"><g clip-path="url(#a)"><path d="M129 258c71.245 0 129-57.755 129-129S200.245 0 129 0 0 57.755 0 129s57.755 129 129 129z" fill="#627EEA"/><path d="M128.984 32.25v71.514l60.444 27.01-60.444-98.524z" fill="#fff" fill-opacity=".602"/><path d="m128.984 32.25-60.453 98.524 60.453-27.01V32.25z" fill="#fff"/><path d="M128.984 177.117v48.593l60.485-83.681-60.485 35.088z" fill="#fff" fill-opacity=".602"/><path d="M128.984 225.71v-48.601l-60.453-35.08 60.453 83.681z" fill="#fff"/><path d="m128.984 165.87 60.444-35.096-60.444-26.994v62.09z" fill="#fff" fill-opacity=".2"/><path d="m68.531 130.774 60.453 35.096v-62.09l-60.453 26.994z" fill="#fff" fill-opacity=".602"/></g><defs><clipPath id="a"><path fill="#fff" d="M0 0h258v258H0z"/></clipPath></defs></svg>