<svg viewBox="0 0 40 40" fill="none" xmlns="http://www.w3.org/2000/svg"><g clip-path="url(#a)"><path fill-rule="evenodd" clip-rule="evenodd" d="M20.01 0c11.052 0 20.01 8.957 20.01 20.01 0 11.052-8.958 20.01-20.01 20.01C8.956 40.02 0 31.061 0 20.01 0 8.956 8.957 0 20.01 0z" fill="#FFEEDA"/><g clip-path="url(#b)"><path d="M41 .12V40H-.924V.12H41z" fill="#121212"/><g clip-path="url(#c)"><mask id="d" style="mask-type:luminance" maskUnits="userSpaceOnUse" x="12" y="11" width="17" height="17"><path d="M28.995 11.885V28H12V11.885h16.995z" fill="#fff"/></mask><g mask="url(#d)" fill="#fff"><path d="M11.593 14.76v13.288h14.238v-3.04H14.352V14.76h-2.759zm11.48 0c0-1.498 1.235-2.712 2.758-2.712s2.757 1.214 2.757 2.712c0 1.498-1.234 2.712-2.757 2.712-1.523 0-2.758-1.214-2.758-2.712z"/></g></g></g></g><defs><clipPath id="a"><rect width="40" height="40" rx="20" fill="#fff"/></clipPath><clipPath id="b"><path fill="#fff" transform="matrix(0 -1 -1 0 41 40)" d="M0 0h40v42H0z"/></clipPath><clipPath id="c"><path fill="#fff" transform="matrix(0 -1 -1 0 28.995 28)" d="M0 0h16v16.995H0z"/></clipPath></defs></svg>