<svg fill="none" viewBox="0 0 40 40" xmlns="http://www.w3.org/2000/svg"><g clip-path="url(#a)"><path fill-rule="evenodd" clip-rule="evenodd" d="M20 0c11.047 0 20 8.953 20 20s-8.953 20-20 20S0 31.047 0 20 8.953 0 20 0z" fill="#FFEEDA"/><path d="M40 0v40H0V0h40z" fill="#121212"/><g clip-path="url(#b)"><path d="M20 40c11.046 0 20-8.954 20-20S31.046 0 20 0 0 8.954 0 20s8.954 20 20 20z" fill="#DFFE00"/><path d="M30.983 29.754h-4.291v-9.74l1.718-5.553-1.218-.434-5.569 15.727H18.36l-5.57-15.727-1.217.434 1.718 5.554v9.74H9v-19.54h6.39L19.351 21.4v3.284h1.296V21.4l3.963-11.186H31v19.54h-.017z" fill="#000"/></g></g><defs><clipPath id="a"><rect width="40" height="40" rx="20" fill="#fff"/></clipPath><clipPath id="b"><path fill="#fff" d="M0 0h40v40H0z"/></clipPath></defs></svg>