<svg fill="none" viewBox="0 0 40 40" xmlns="http://www.w3.org/2000/svg"><rect width="40" height="40" rx="20" fill="#FF0420"/><path d="M6 20c0-7.732 6.268-14 14-14s14 6.268 14 14-6.268 14-14 14S6 27.732 6 20z" fill="#fff"/><path d="M20 6C12.268 6 6 12.268 6 20s6.268 14 14 14 14-6.268 14-14S27.732 6 20 6zm0 21.128v5.846c-5.551 0-10.051-4.5-10.051-10.05 0-5.552 4.5-10.052 10.051-10.052V7.026c5.551 0 10.051 4.5 10.051 10.05 0 5.552-4.5 10.052-10.051 10.052zm4.82-7.173v.09c-2.124 1.059-3.716 2.65-4.775 4.775h-.09c-1.059-2.124-2.65-3.716-4.775-4.775v-.09c2.124-1.059 3.716-2.65 4.775-4.775h.09c1.059 2.124 2.65 3.716 4.775 4.775z" fill="#FF0420"/></svg>