<svg fill="none" viewBox="0 0 258 258" xmlns="http://www.w3.org/2000/svg"><g clip-path="url(#a)"><path d="M129 258c71.245 0 129-57.755 129-129S200.245 0 129 0 0 57.755 0 129s57.755 129 129 129z" fill="#6F41D8"/><path d="M170.054 102.337c-2.975-1.733-6.837-1.733-10.11 0l-23.212 13.336-15.762 8.691-23.212 13.327c-2.975 1.742-6.837 1.742-10.11 0L69.2 127.259c-2.975-1.734-5.055-4.919-5.055-8.402V98.282c0-3.475 1.782-6.66 5.055-8.401l18.141-10.143c2.983-1.741 6.853-1.741 10.127 0l18.14 10.143c2.983 1.741 5.063 4.926 5.063 8.4v13.336l15.763-8.989V89.3a9.353 9.353 0 0 0-5.056-8.4l-33.62-19.125c-2.975-1.742-6.837-1.742-10.11 0L53.43 80.899a9.353 9.353 0 0 0-5.055 8.401v38.539c0 3.483 1.782 6.668 5.055 8.409l34.217 19.124c2.975 1.734 6.846 1.734 10.11 0l23.213-13.045 15.762-8.981 23.212-13.037c2.975-1.742 6.837-1.742 10.11 0l18.149 10.142c2.983 1.734 5.055 4.918 5.055 8.401v20.576c0 3.475-1.774 6.659-5.055 8.401l-18.141 10.433c-2.983 1.741-6.853 1.741-10.118 0l-18.149-10.143c-2.983-1.741-5.063-4.926-5.063-8.401v-13.335l-15.762 8.989V168.7c0 3.475 1.782 6.667 5.055 8.401l34.217 19.124c2.975 1.742 6.837 1.742 10.111 0l34.217-19.124c2.975-1.734 5.055-4.918 5.055-8.401v-38.539a9.36 9.36 0 0 0-1.338-4.916 9.36 9.36 0 0 0-3.717-3.485l-34.508-19.423h-.008z" fill="#fff"/></g><defs><clipPath id="a"><path fill="#fff" d="M0 0h258v258H0z"/></clipPath></defs></svg>