<?xml version="1.0" encoding="UTF-8"?>
<svg version="1.1" xmlns="http://www.w3.org/2000/svg" width="128" height="128">
<path d="M0 0 C42.24 0 84.48 0 128 0 C128 42.24 128 84.48 128 128 C85.76 128 43.52 128 0 128 C0 85.76 0 43.52 0 0 Z " fill="#000001" transform="translate(0,0)"/>
<path d="M0 0 C2.45496849 0.05523882 4.91005636 0.105418 7.36523438 0.15039062 C13.35028113 0.2709794 19.33083114 0.45447791 25.3125 0.6875 C25.3125 1.6775 25.3125 2.6675 25.3125 3.6875 C24.6525 3.6875 23.9925 3.6875 23.3125 3.6875 C23.04172134 4.26085083 22.77094269 4.83420166 22.49195862 5.42492676 C20.35816599 9.51821331 18.01898731 12.87618862 14.3125 15.6875 C10.2689813 16.7602674 6.41349694 16.62470161 2.25390625 16.46875 C1.10961655 16.45743042 -0.03467316 16.44611084 -1.21363831 16.43444824 C-4.85249402 16.38982316 -8.48734451 16.28947461 -12.125 16.1875 C-14.59825021 16.14735562 -17.07156246 16.11085655 -19.54492188 16.078125 C-25.59380414 15.99013335 -31.64036594 15.85643228 -37.6875 15.6875 C-37.6875 10.45803296 -35.9744596 8.23640936 -32.44267273 4.47636414 C-23.94880055 -2.97342742 -10.47588131 -0.40953791 0 0 Z " fill="#22E7B5" transform="translate(70.6875,34.3125)"/>
<path d="M0 0 C7.2587399 -0.17805392 14.51691321 -0.3003105 21.77734375 -0.38452148 C24.24500574 -0.41963971 26.71252295 -0.46734647 29.1796875 -0.52807617 C32.73473889 -0.61336874 36.28785918 -0.65277691 39.84375 -0.68359375 C40.93989624 -0.71972275 42.03604248 -0.75585175 43.16540527 -0.79307556 C50.09277452 -0.7965957 53.6953143 0.41377128 58.67736816 5.29747009 C60 7 60 7 60 9 C60.66 9 61.32 9 62 9 C62 9.66 62 10.32 62 11 C62.66 11 63.32 11 64 11 C64 11.99 64 12.98 64 14 C56.56221282 14.1776877 49.12497394 14.30015784 41.68554688 14.38452148 C39.15571642 14.41969404 36.62602795 14.46744111 34.09667969 14.52807617 C30.45732595 14.61312784 26.8198547 14.65272253 23.1796875 14.68359375 C21.48717361 14.73778725 21.48717361 14.73778725 19.76046753 14.79307556 C12.03739448 14.7969254 12.03739448 14.7969254 9.01373291 12.47415161 C7.41845703 10.59790039 7.41845703 10.59790039 6.16506958 8.72694397 C4.93312785 6.70957589 4.93312785 6.70957589 2.125 4.75 C1.42375 4.1725 0.7225 3.595 0 3 C0 2.01 0 1.02 0 0 Z " fill="#6C75D4" transform="translate(32,57)"/>
<path d="M0 0 C2.45954517 0.05020802 4.91918855 0.09582705 7.37890625 0.13671875 C13.37976091 0.2464335 19.3769219 0.41333023 25.375 0.625 C22.51088532 6.43366308 19.48857704 11.80181321 13.375 14.625 C5.00641488 16.33125472 -3.77140044 15.56271105 -12.25 15.25 C-14.61318724 15.19978835 -16.97647681 15.15416995 -19.33984375 15.11328125 C-25.10381074 15.003602 -30.8639269 14.83673708 -36.625 14.625 C-36.625 10.04808287 -36.06040187 8.94364137 -33.2890625 5.4140625 C-24.53552458 -2.99365664 -11.27456179 -0.39927287 0 0 Z " fill="#7A5FB9" transform="translate(70.625,78.375)"/>
<path d="M0 0 C2.33333333 2.33333333 4.66666667 4.66666667 7 7 C9.4255024 7.33145587 9.4255024 7.33145587 12.27587891 7.31884766 C13.3768692 7.33871735 14.4778595 7.35858704 15.61221313 7.37905884 C16.80494843 7.39061005 17.99768372 7.40216125 19.2265625 7.4140625 C21.05349136 7.44311172 21.05349136 7.44311172 22.91732788 7.4727478 C26.8198133 7.53268215 30.72232799 7.57898471 34.625 7.625 C37.2656381 7.66316699 39.90626357 7.70221795 42.546875 7.7421875 C49.03113826 7.83839504 55.51547708 7.92340176 62 8 C62 8.33 62 8.66 62 9 C56.72 9 51.44 9 46 9 C46 9.99 46 10.98 46 12 C46.99 12 47.98 12 49 12 C49 12.66 49 13.32 49 14 C52.63 14 56.26 14 60 14 C60 14.66 60 15.32 60 16 C59.37074615 15.99032196 58.74149231 15.98064392 58.09317017 15.97067261 C51.50568331 15.87928388 44.92059191 15.85865351 38.33251953 15.87792969 C35.87866391 15.87599065 33.42475301 15.85639401 30.97119141 15.81835938 C16.9514037 14.90990213 16.9514037 14.90990213 4.10449219 19.23144531 C1.57482337 21.71114536 -0.33440925 23.88132267 -2 27 C-2 27.66 -2 28.32 -2 29 C12.19 29.33 26.38 29.66 41 30 C41 30.33 41 30.66 41 31 C34.48554795 31.0505939 27.97114632 31.08568856 21.45654297 31.10986328 C19.23907579 31.11993825 17.02162195 31.13359859 14.80419922 31.15087891 C11.62203688 31.17506163 8.44004976 31.18646797 5.2578125 31.1953125 C3.76400558 31.21079636 3.76400558 31.21079636 2.24002075 31.22659302 C0.85881546 31.22681961 0.85881546 31.22681961 -0.55029297 31.22705078 C-1.3630368 31.231492 -2.17578064 31.23593323 -3.01315308 31.24050903 C-5 31 -5 31 -7 29 C-7 27.68 -7 26.36 -7 25 C-6.01 25 -5.02 25 -4 25 C-4 24.01 -4 23.02 -4 22 C-2.68 21.67 -1.36 21.34 0 21 C1.43791484 13.81042579 1.1936095 7.16165702 0 0 Z " fill="#0D0332" transform="translate(36,63)"/>
<path d="M0 0 C1.375 2.25 1.375 2.25 2 4 C2.66 4 3.32 4 4 4 C4 4.66 4 5.32 4 6 C4.66 6 5.32 6 6 6 C6 6.99 6 7.98 6 9 C-14.29650092 9.39410681 -14.29650092 9.39410681 -21 7 C-21.70282336 5.68536638 -22.37224433 4.35208914 -23 3 C-25.05000871 2.19471111 -25.05000871 2.19471111 -27 2 C-27 0.68 -27 -0.64 -27 -2 C-23.62898269 -2.454499 -20.25366185 -2.85671661 -16.875 -3.25 C-15.92367187 -3.37890625 -14.97234375 -3.5078125 -13.9921875 -3.640625 C-7.84162517 -4.32402081 -4.6563848 -4.23307709 0 0 Z " fill="#46A7B6" transform="translate(90,62)"/>
<path d="M0 0 C2.45496849 0.05523882 4.91005636 0.105418 7.36523438 0.15039062 C13.35028113 0.2709794 19.33083114 0.45447791 25.3125 0.6875 C25.3125 1.3475 25.3125 2.0075 25.3125 2.6875 C18.54981695 2.83050149 11.78712041 2.97285088 5.02441406 3.11474609 C2.72362965 3.16309826 0.42284837 3.21159993 -1.87792969 3.26025391 C-5.18423666 3.33014564 -8.49055452 3.39950045 -11.796875 3.46875 C-13.3408194 3.50156067 -13.3408194 3.50156067 -14.91595459 3.53503418 C-15.87664856 3.55505493 -16.83734253 3.57507568 -17.82714844 3.59570312 C-19.09289703 3.62235046 -19.09289703 3.62235046 -20.38421631 3.64953613 C-22.48506363 3.68416334 -24.58636733 3.6875 -26.6875 3.6875 C-27.3475 5.3375 -28.0075 6.9875 -28.6875 8.6875 C-27.759375 9.120625 -27.759375 9.120625 -26.8125 9.5625 C-24.6875 10.6875 -24.6875 10.6875 -22.6875 12.6875 C-15.11936889 14.08797524 -7.36179144 14.02074839 0.3125 14.25 C1.67318789 14.29328135 3.03386515 14.33689839 4.39453125 14.38085938 C7.70043157 14.48636683 11.00639999 14.58848256 14.3125 14.6875 C14.3125 15.0175 14.3125 15.3475 14.3125 15.6875 C-2.8475 15.6875 -20.0075 15.6875 -37.6875 15.6875 C-37.6875 10.45803296 -35.9744596 8.23640936 -32.44267273 4.47636414 C-23.94880055 -2.97342742 -10.47588131 -0.40953791 0 0 Z " fill="#5191A0" transform="translate(70.6875,34.3125)"/>
<path d="M0 0 C-0.33 0.99 -0.66 1.98 -1 3 C-14.86 3 -28.72 3 -43 3 C-43.33 2.01 -43.66 1.02 -44 0 C-31.66355382 -11.25945485 -14.38148612 -3.73638667 0 0 Z " fill="#8855E5" transform="translate(81,88)"/>
<path d="M0 0 C18.15 0 36.3 0 55 0 C55 0.66 55 1.32 55 2 C49.6541673 2.91934702 44.63541951 3.0681642 39.22265625 2.87890625 C38.41130722 2.85529526 37.59995819 2.83168427 36.76402283 2.80735779 C34.19664142 2.73136277 31.62961191 2.64706652 29.0625 2.5625 C27.31186563 2.50921489 25.56121458 2.45647505 23.81054688 2.40429688 C19.54014576 2.27583562 15.27003995 2.13993369 11 2 C11 2.99 11 3.98 11 5 C15.29 5.33 19.58 5.66 24 6 C23.67 5.01 23.34 4.02 23 3 C29.6 3 36.2 3 43 3 C43 3.33 43 3.66 43 4 C43.90363281 4.08636719 44.80726562 4.17273437 45.73828125 4.26171875 C47.50751953 4.47248047 47.50751953 4.47248047 49.3125 4.6875 C50.48425781 4.81511719 51.65601563 4.94273438 52.86328125 5.07421875 C56 6 56 6 57.98046875 8.45703125 C58.31691406 9.29621094 58.65335938 10.13539062 59 11 C58.67 11.66 58.34 12.32 58 13 C57.4016333 12.35256836 56.8032666 11.70513672 56.18676758 11.03808594 C51.54587443 8.07001913 47.4161887 8.39710865 42.01171875 8.390625 C40.95338333 8.37408875 39.89504791 8.35755249 38.80464172 8.34051514 C35.43220218 8.29202195 32.06021365 8.27066054 28.6875 8.25 C26.39776375 8.22184154 24.10804853 8.19191429 21.81835938 8.16015625 C16.21232149 8.08626271 10.60641052 8.03462784 5 8 C6.32 7.34 7.64 6.68 9 6 C9 5.34 9 4.68 9 4 C6.36 4.33 3.72 4.66 1 5 C0.67 3.35 0.34 1.7 0 0 Z " fill="#010A18" transform="translate(31,49)"/>
<path d="M0 0 C17.16 0 34.32 0 52 0 C52 0.66 52 1.32 52 2 C42.92197503 2.86472538 33.86315709 3.28315197 24.75 3.5625 C23.40754308 3.60584172 22.06509505 3.64946003 20.72265625 3.69335938 C17.4818473 3.79827765 14.24097723 3.90044015 11 4 C10.67 6.31 10.34 8.62 10 11 C14.40900502 11.82927069 18.66603007 12.18231714 23.1484375 12.31640625 C24.13452499 12.3475779 24.13452499 12.3475779 25.14053345 12.37937927 C27.21859362 12.44420753 29.29676856 12.50344564 31.375 12.5625 C32.79298011 12.60574888 34.21094907 12.64936509 35.62890625 12.69335938 C39.0858188 12.79981918 42.54285706 12.90126984 46 13 C46 13.33 46 13.66 46 14 C41.12550911 14.17367998 36.25283603 14.30035478 31.37597656 14.38452148 C29.71908177 14.4196197 28.0624022 14.46731347 26.40625 14.52807617 C12.59359853 15.02197807 12.59359853 15.02197807 8.64501953 12.48974609 C7.15753465 10.72596812 6.11641838 9.00825361 5 7 C4.05125 6.2575 3.1025 5.515 2.125 4.75 C1.42375 4.1725 0.7225 3.595 0 3 C0 2.01 0 1.02 0 0 Z " fill="#6177B6" transform="translate(32,57)"/>
<path d="M0 0 C10.56 0 21.12 0 32 0 C29.70052069 4.59895863 27.11838432 7.90481676 23 11 C19.5625 11.4375 19.5625 11.4375 17 11 C17 10.34 17 9.68 17 9 C14.69 8.67 12.38 8.34 10 8 C9.67 7.01 9.34 6.02 9 5 C9.66 5 10.32 5 11 5 C11 4.01 11 3.02 11 2 C7.37 1.67 3.74 1.34 0 1 C0 0.67 0 0.34 0 0 Z " fill="#6080AD" transform="translate(64,79)"/>
<path d="M0 0 C8.25 0 16.5 0 25 0 C25 0.33 25 0.66 25 1 C19.72 1 14.44 1 9 1 C9 1.99 9 2.98 9 4 C9.99 4 10.98 4 12 4 C12 4.66 12 5.32 12 6 C15.63 6 19.26 6 23 6 C23 6.33 23 6.66 23 7 C6.83 7 -9.34 7 -26 7 C-26 6.67 -26 6.34 -26 6 C-20.06 5.505 -20.06 5.505 -14 5 C-14 4.01 -14 3.02 -14 2 C-9.38 2 -4.76 2 0 2 C0 1.34 0 0.68 0 0 Z " fill="#001128" transform="translate(73,71)"/>
<path d="M0 0 C0.89203125 0.10183594 1.7840625 0.20367187 2.703125 0.30859375 C3.37859375 0.39238281 4.0540625 0.47617187 4.75 0.5625 C3.76 1.2225 2.77 1.8825 1.75 2.5625 C1.49969023 5.14630177 1.49969023 5.14630177 1.75 7.5625 C9.29089102 9.32204124 16.96963715 9.66726213 24.6875 9.75 C26.58822266 9.77126953 26.58822266 9.77126953 28.52734375 9.79296875 C31.90135101 9.8183298 31.90135101 9.8183298 34.75 7.5625 C34.09 8.8825 33.43 10.2025 32.75 11.5625 C28.62403297 11.58742452 24.49809578 11.60546521 20.37207031 11.61743164 C18.97167191 11.62242616 17.57127863 11.62922408 16.17089844 11.63793945 C-4.88783216 11.76561364 -4.88783216 11.76561364 -11.25 5.5625 C-10.5 3.125 -10.5 3.125 -9.25 0.5625 C-6.08633512 -0.68036835 -3.32886511 -0.39420771 0 0 Z " fill="#30C3A9" transform="translate(53.25,37.4375)"/>
<path d="M0 0 C17.16 0 34.32 0 52 0 C52 0.66 52 1.32 52 2 C45.23731695 2.14300149 38.47462041 2.28535088 31.71191406 2.42724609 C29.41112965 2.47559826 27.11034837 2.52409993 24.80957031 2.57275391 C21.50326334 2.64264564 18.19694548 2.71200045 14.890625 2.78125 C13.3466806 2.81406067 13.3466806 2.81406067 11.77154541 2.84753418 C10.81085144 2.86755493 9.85015747 2.88757568 8.86035156 2.90820312 C8.01651917 2.92596802 7.17268677 2.94373291 6.30328369 2.96203613 C4.20243637 2.99666334 2.10113267 3 0 3 C0 2.01 0 1.02 0 0 Z " fill="#42A78D" transform="translate(44,35)"/>
<path d="M0 0 C4.29 0 8.58 0 13 0 C13.33 1.98 13.66 3.96 14 6 C14.66 6 15.32 6 16 6 C15.67 6.99 15.34 7.98 15 9 C12.03 9 9.06 9 6 9 C6 7.68 6 6.36 6 5 C4.35 4.67 2.7 4.34 1 4 C0.67 2.68 0.34 1.36 0 0 Z " fill="#37C4B8" transform="translate(75,60)"/>
<path d="M0 0 C9.9 0 19.8 0 30 0 C30 0.66 30 1.32 30 2 C25.38 2 20.76 2 16 2 C16 2.99 16 3.98 16 5 C17.65 5 19.3 5 21 5 C21 5.33 21 5.66 21 6 C14.4 6 7.8 6 1 6 C1 5.67 1 5.34 1 5 C2.98 5 4.96 5 7 5 C7 4.01 7 3.02 7 2 C4.69 1.67 2.38 1.34 0 1 C0 0.67 0 0.34 0 0 Z " fill="#14144B" transform="translate(43,71)"/>
<path d="M0 0 C4.49406959 0.71213718 8.92859613 1.59771425 13.375 2.5625 C14.62023437 2.83191406 15.86546875 3.10132812 17.1484375 3.37890625 C18.08945313 3.58386719 19.03046875 3.78882812 20 4 C19.67 4.99 19.34 5.98 19 7 C12.4 7 5.8 7 -1 7 C0.32 6.67 1.64 6.34 3 6 C3 5.34 3 4.68 3 4 C2.01 3.67 1.02 3.34 0 3 C0 2.01 0 1.02 0 0 Z " fill="#7568EC" transform="translate(61,84)"/>
<path d="M0 0 C2.72943537 -0.05416741 5.45778564 -0.09375225 8.1875 -0.125 C9.34088867 -0.15013672 9.34088867 -0.15013672 10.51757812 -0.17578125 C14.8149434 -0.21266851 18.07901831 0.0041496 22 2 C22 2.66 22 3.32 22 4 C14.08 4 6.16 4 -2 4 C-1.34 2.68 -0.68 1.36 0 0 Z " fill="#8951F9" transform="translate(42,86)"/>
<path d="M0 0 C5.0572806 0.44623064 7.50642642 2.50642642 11 6 C11 7.32 11 8.64 11 10 C9.02 10 7.04 10 5 10 C5 9.34 5 8.68 5 8 C2.69 7.67 0.38 7.34 -2 7 C-2.33 6.01 -2.66 5.02 -3 4 C-2.34 4 -1.68 4 -1 4 C-0.67 2.68 -0.34 1.36 0 0 Z " fill="#597DC6" transform="translate(76,80)"/>
<path d="M0 0 C2.97 0 5.94 0 9 0 C8.67 0.99 8.34 1.98 8 3 C17.57 3.33 27.14 3.66 37 4 C37 4.33 37 4.66 37 5 C20.83 5 4.66 5 -12 5 C-12 4.67 -12 4.34 -12 4 C-6.06 3.505 -6.06 3.505 0 3 C0 2.01 0 1.02 0 0 Z " fill="#000323" transform="translate(59,73)"/>
<path d="M0 0 C11.88 0 23.76 0 36 0 C36 0.33 36 0.66 36 1 C28.41 1.33 20.82 1.66 13 2 C13 2.66 13 3.32 13 4 C11.20841511 4.02696365 9.41671527 4.04637917 7.625 4.0625 C6.62726562 4.07410156 5.62953125 4.08570313 4.6015625 4.09765625 C2 4 2 4 0 3 C0 2.01 0 1.02 0 0 Z " fill="#000B0C" transform="translate(42,51)"/>
<path d="M0 0 C12.21 0 24.42 0 37 0 C36.34 0.33 35.68 0.66 35 1 C34.566875 1.928125 34.566875 1.928125 34.125 2.875 C32.80519587 5.36796335 31.32278328 6.45147781 29 8 C29 6.02 29 4.04 29 2 C19.43 1.67 9.86 1.34 0 1 C0 0.67 0 0.34 0 0 Z " fill="#42DBAC" transform="translate(59,37)"/>
<path d="M0 0 C0.33 0 0.66 0 1 0 C1 1.65 1 3.3 1 5 C17.17 5 33.34 5 50 5 C50 5.33 50 5.66 50 6 C32.84 6 15.68 6 -2 6 C-2 2 -2 2 0 0 Z " fill="#2C6E6D" transform="translate(35,44)"/>
<path d="M0 0 C18.15 0 36.3 0 55 0 C55 0.33 55 0.66 55 1 C54.35742249 1.00586624 53.71484497 1.01173248 53.05279541 1.01777649 C46.36921548 1.08167396 39.6861187 1.16608441 33.00292969 1.26245117 C30.50820279 1.29572069 28.01340025 1.32374623 25.51855469 1.34643555 C21.93391665 1.3799435 18.34997308 1.43225911 14.765625 1.48828125 C13.09043793 1.49786613 13.09043793 1.49786613 11.38140869 1.50764465 C10.34063171 1.52743881 9.29985474 1.54723297 8.22753906 1.56762695 C7.31264709 1.57873001 6.39775513 1.58983307 5.45513916 1.60127258 C2.57402751 2.06918016 1.16741963 3.0920343 -1 5 C-0.67 3.35 -0.34 1.7 0 0 Z " fill="#26225A" transform="translate(41,78)"/>
<path d="M0 0 C2 1.375 2 1.375 4 3 C4 3.66 4 4.32 4 5 C4.66 5 5.32 5 6 5 C6 5.66 6 6.32 6 7 C6.66 7 7.32 7 8 7 C8 7.99 8 8.98 8 10 C5.12493579 10.02712325 2.25013092 10.04689851 -0.625 10.0625 C-1.83736328 10.07506836 -1.83736328 10.07506836 -3.07421875 10.08789062 C-7.50341918 10.1058955 -11.63883424 9.89622662 -16 9 C-16 8.67 -16 8.34 -16 8 C-15.3709375 8.01160156 -14.741875 8.02320312 -14.09375 8.03515625 C-8.62921046 8.09276435 -3.385275 7.97914091 2 7 C2.33 6.34 2.66 5.68 3 5 C2.34 5 1.68 5 1 5 C0.67 3.35 0.34 1.7 0 0 Z " fill="#62B2AF" transform="translate(88,61)"/>
<path d="M0 0 C15.84 0 31.68 0 48 0 C48.66 1.98 49.32 3.96 50 6 C49.22060059 5.35256836 48.44120117 4.70513672 47.63818359 4.03808594 C43.27738252 1.14892984 38.87696488 1.39733604 33.7890625 1.390625 C32.82092621 1.37408875 31.85278992 1.35755249 30.85531616 1.34051514 C27.77847898 1.29212655 24.70213574 1.2706842 21.625 1.25 C19.53252736 1.22183272 17.44007763 1.19190424 15.34765625 1.16015625 C10.23181151 1.08636978 5.1162395 1.03673912 0 1 C0 0.67 0 0.34 0 0 Z " fill="#05243D" transform="translate(40,56)"/>
<path d="M0 0 C0.99 0 1.98 0 3 0 C3 1.65 3 3.3 3 5 C17.85 5 32.7 5 48 5 C48 5.33 48 5.66 48 6 C41.48554795 6.0505939 34.97114632 6.08568856 28.45654297 6.10986328 C26.23907579 6.11993825 24.02162195 6.13359859 21.80419922 6.15087891 C18.62203688 6.17506163 15.44004976 6.18646797 12.2578125 6.1953125 C10.76400558 6.21079636 10.76400558 6.21079636 9.24002075 6.22659302 C7.85881546 6.22681961 7.85881546 6.22681961 6.44970703 6.22705078 C5.6369632 6.231492 4.82421936 6.23593323 3.98684692 6.24050903 C2 6 2 6 0 4 C0 2.68 0 1.36 0 0 Z " fill="#08001A" transform="translate(29,88)"/>
<path d="M0 0 C19.53191489 -0.57446809 19.53191489 -0.57446809 28 3 C28 3.66 28 4.32 28 5 C24.64246355 5.16378227 22.02553481 5.00743732 18.78125 4.0625 C14.85963182 2.9605577 11.09388892 2.35765893 7.0625 1.875 C6.37865234 1.78863281 5.69480469 1.70226562 4.99023438 1.61328125 C3.32742954 1.40397715 1.66379487 1.20128278 0 1 C0 0.67 0 0.34 0 0 Z " fill="#8059D2" transform="translate(45,81)"/>
<path d="M0 0 C2.97 0 5.94 0 9 0 C9.33 1.98 9.66 3.96 10 6 C10.66 6 11.32 6 12 6 C11.67 6.99 11.34 7.98 11 9 C8.03 9 5.06 9 2 9 C2 8.01 2 7.02 2 6 C3.98 6 5.96 6 8 6 C8 4.68 8 3.36 8 2 C5.36 1.67 2.72 1.34 0 1 C0 0.67 0 0.34 0 0 Z " fill="#48C0B0" transform="translate(79,60)"/>
<path d="M0 0 C3.4246773 0.01285057 6.6733627 0.14825228 10 1 C12.125 4.0625 12.125 4.0625 13 7 C8.64642017 7.43535798 5.95900264 7.38921814 2.5625 4.625 C0 2 0 2 0 0 Z " fill="#4AB4C3" transform="translate(42,41)"/>
<path d="M0 0 C1.958964 0.30852185 3.91715713 0.6219418 5.875 0.9375 C6.96554688 1.11152344 8.05609375 1.28554687 9.1796875 1.46484375 C12 2 12 2 14 3 C14 3.99 14 4.98 14 6 C12.02 6 10.04 6 8 6 C8 5.34 8 4.68 8 4 C5.69 3.67 3.38 3.34 1 3 C0.67 2.01 0.34 1.02 0 0 Z " fill="#6377DE" transform="translate(73,84)"/>
<path d="M0 0 C3.3 0 6.6 0 10 0 C10 1.32 10 2.64 10 4 C6.33694766 4.74926071 3.57644848 5.2380014 0 4 C0 2.68 0 1.36 0 0 Z " fill="#639AD1" transform="translate(63,60)"/>
<path d="M0 0 C5.53846154 0.49230769 5.53846154 0.49230769 7.875 3.0625 C8.431875 4.0215625 8.431875 4.0215625 9 5 C8 6 8 6 5.4375 6.0625 C4.2309375 6.0315625 4.2309375 6.0315625 3 6 C3 5.34 3 4.68 3 4 C2.01 3.67 1.02 3.34 0 3 C0 2.01 0 1.02 0 0 Z " fill="#805DF0" transform="translate(61,84)"/>
<path d="M0 0 C0.66 0.33 1.32 0.66 2 1 C1.67 1.66 1.34 2.32 1 3 C1.61875 3.268125 2.2375 3.53625 2.875 3.8125 C5 5 5 5 7 8 C3.37 8 -0.26 8 -4 8 C-3.67 6.68 -3.34 5.36 -3 4 C-2.34 4 -1.68 4 -1 4 C-1 4.99 -1 5.98 -1 7 C-0.01 7 0.98 7 2 7 C2 6.01 2 5.02 2 4 C1.34 4 0.68 4 0 4 C0 2.68 0 1.36 0 0 Z " fill="#5C9FB3" transform="translate(41,40)"/>
<path d="M0 0 C3.96 0 7.92 0 12 0 C11.67 1.32 11.34 2.64 11 4 C9.02 4 7.04 4 5 4 C4.67 3.34 4.34 2.68 4 2 C2.68 1.34 1.36 0.68 0 0 Z " fill="#7170C1" transform="translate(64,80)"/>
<path d="M0 0 C1.65 0 3.3 0 5 0 C5 1.65 5 3.3 5 5 C3.02 5 1.04 5 -1 5 C-0.67 3.35 -0.34 1.7 0 0 Z " fill="#180000" transform="translate(93,44)"/>
<path d="M0 0 C2.64 0 5.28 0 8 0 C7.60196439 2.88575819 7.20990931 3.82189513 4.9375 5.75 C4.298125 6.1625 3.65875 6.575 3 7 C3 5.02 3 3.04 3 1 C2.01 0.67 1.02 0.34 0 0 Z " fill="#30E0A8" transform="translate(85,38)"/>
<path d="M0 0 C2.31 0.33 4.62 0.66 7 1 C7 1.99 7 2.98 7 4 C4.69 4 2.38 4 0 4 C-0.33 3.34 -0.66 2.68 -1 2 C-0.67 1.34 -0.34 0.68 0 0 Z " fill="#38BFC1" transform="translate(44,38)"/>
<path d="M0 0 C1.98 0 3.96 0 6 0 C5.04578192 1.14926266 4.08647955 2.29430541 3.125 3.4375 C2.59132813 4.07558594 2.05765625 4.71367188 1.5078125 5.37109375 C0 7 0 7 -2 8 C-2 7.01 -2 6.02 -2 5 C-1.34 4.67 -0.68 4.34 0 4 C0 2.68 0 1.36 0 0 Z " fill="#001C24" transform="translate(38,35)"/>
<path d="M0 0 C0.33 0.99 0.66 1.98 1 3 C-1.31 4.98 -3.62 6.96 -6 9 C-6.66 8.67 -7.32 8.34 -8 8 C-5.36 5.36 -2.72 2.72 0 0 Z " fill="#121F3D" transform="translate(92,84)"/>
<path d="M0 0 C2.97 0 5.94 0 9 0 C9 0.66 9 1.32 9 2 C7.68 2 6.36 2 5 2 C5 2.66 5 3.32 5 4 C4.34 4 3.68 4 3 4 C1.375 2 1.375 2 0 0 Z " fill="#7D9BB1" transform="translate(86,80)"/>
<path d="M0 0 C2.97 0.495 2.97 0.495 6 1 C6 1.99 6 2.98 6 4 C4.35 4 2.7 4 1 4 C0.67 2.68 0.34 1.36 0 0 Z " fill="#2ECFB1" transform="translate(81,61)"/>
<path d="M0 0 C2.64 0 5.28 0 8 0 C7.34 0.66 6.68 1.32 6 2 C5.67 2.99 5.34 3.98 5 5 C3.35 3.35 1.7 1.7 0 0 Z " fill="#5C5485" transform="translate(32,59)"/>
<path d="M0 0 C1.65 0 3.3 0 5 0 C5 1.32 5 2.64 5 4 C2.03 3.505 2.03 3.505 -1 3 C-0.67 2.01 -0.34 1.02 0 0 Z " fill="#5CACCE" transform="translate(68,60)"/>
<path d="M0 0 C2.64 0.66 5.28 1.32 8 2 C8 2.66 8 3.32 8 4 C2.25 4.125 2.25 4.125 0 3 C0 2.01 0 1.02 0 0 Z " fill="#7866D5" transform="translate(65,82)"/>
<path d="M0 0 C0.33 0.66 0.66 1.32 1 2 C1.66 2 2.32 2 3 2 C3 1.34 3 0.68 3 0 C3.99 0.33 4.98 0.66 6 1 C3.03 3.475 3.03 3.475 0 6 C0 4.02 0 2.04 0 0 Z " fill="#5E83A0" transform="translate(88,82)"/>
</svg>
